<?xml version="1.0" encoding="utf-8"?>
<!-- Generator: Adobe Illustrator 27.6.0, SVG Export Plug-In . SVG Version: 6.00 Build 0)  -->
<svg version="1.1" id="Layer_1" xmlns:serif="http://www.serif.com/"
	 xmlns="http://www.w3.org/2000/svg" xmlns:xlink="http://www.w3.org/1999/xlink" x="0px" y="0px" viewBox="0 0 595.3 588"
	 style="enable-background:new 0 0 595.3 588;" xml:space="preserve">
<style type="text/css">
	.st0{fill:#A8A8A8;fill-opacity:0;}
	.st1{fill-rule:evenodd;clip-rule:evenodd;stroke:#000000;stroke-width:1.4287;stroke-miterlimit:4.7622;}
	.st2{fill:#9E9E9E;}
	.st3{fill:none;stroke:#BFBFBF;stroke-width:0.75;stroke-linejoin:round;stroke-miterlimit:2.3811;}
</style>
<path class="st0" d="M565.2,295.7c0,146.6-119,265.6-265.6,265.6S33.9,442.3,33.9,295.7s119-265.6,265.6-265.6
	S565.2,149.2,565.2,295.7z"/>
<path id="v" class="st1" d="M590.7,294.2c0,161.5-131.2,292.5-292.9,292.5S4.8,455.7,4.8,294.2S136,1.7,297.7,1.7
	S590.7,132.8,590.7,294.2z M563.9,294.2c0,146.7-119.2,265.8-266.1,265.8S31.5,441,31.5,294.2S150.7,28.4,297.7,28.4
	S563.9,147.6,563.9,294.2z"/>
<g>
	<polygon class="st2" points="301.1,20.7 302.4,21.3 303.5,22 304.5,22.9 305,24 305.1,24.8 305.1,24.8 305.1,25 305.1,25.1 
		305,25.6 301.7,58.3 298.3,92.1 294.3,58.4 290.4,25.7 290.3,25.2 290.3,25.1 290.3,24.9 290.4,24.9 290.5,24.1 291.1,23 
		291.9,22.1 293,21.4 294.3,20.8 295.9,20.5 297.6,20.4 299.2,20.5 	"/>
	<polygon class="st3" points="301.1,20.7 302.4,21.3 303.5,22 304.5,22.9 305,24 305.1,24.8 305.1,24.8 305.1,25 305.1,25.1 
		305,25.6 301.7,58.3 298.3,92.1 294.3,58.4 290.4,25.7 290.3,25.2 290.3,25.1 290.3,24.9 290.4,24.9 290.5,24.1 291.1,23 
		291.9,22.1 293,21.4 294.3,20.8 295.9,20.5 297.6,20.4 299.2,20.5 	"/>
</g>
</svg>
